<svg width="405" height="56" viewBox="0 0 405 56" fill="none" xmlns="http://www.w3.org/2000/svg">
<g filter="url(#filter0_d)">
<path d="M33.926 1.513V6.767H20.436V51H13.975V6.767H0.414V1.513H33.926ZM273.71 51.497C269.118 51.497 264.929 50.432 261.143 48.302C257.356 46.1247 254.35 43.119 252.126 39.285C249.948 35.4037 248.86 31.049 248.86 26.221C248.86 21.393 249.948 17.062 252.126 13.228C254.35 9.34667 257.356 6.341 261.143 4.211C264.929 2.03366 269.118 0.944997 273.71 0.944997C278.348 0.944997 282.561 2.03366 286.348 4.211C290.134 6.341 293.116 9.323 295.294 13.157C297.471 16.991 298.56 21.3457 298.56 26.221C298.56 31.0963 297.471 35.451 295.294 39.285C293.116 43.119 290.134 46.1247 286.348 48.302C282.561 50.432 278.348 51.497 273.71 51.497ZM273.71 45.888C277.165 45.888 280.265 45.0833 283.011 43.474C285.803 41.8647 287.981 39.569 289.543 36.587C291.152 33.605 291.957 30.1497 291.957 26.221C291.957 22.245 291.152 18.7897 289.543 15.855C287.981 12.873 285.827 10.5773 283.082 8.968C280.336 7.35866 277.212 6.554 273.71 6.554C270.207 6.554 267.083 7.35866 264.338 8.968C261.592 10.5773 259.415 12.873 257.806 15.855C256.244 18.7897 255.463 22.245 255.463 26.221C255.463 30.1497 256.244 33.605 257.806 36.587C259.415 39.569 261.592 41.8647 264.338 43.474C267.13 45.0833 270.254 45.888 273.71 45.888Z" fill="white"/>
<path d="M39.8201 6.767V23.31H57.8541V28.635H39.8201V45.675H59.9841V51H33.3591V1.442H59.9841V6.767H39.8201ZM306.45 45.746H323.774V51H299.989V1.513H306.45V45.746Z" fill="#FAE800"/>
<path d="M60.9565 26.221C60.9565 21.393 62.0451 17.062 64.2225 13.228C66.3998 9.34667 69.3581 6.31733 73.0975 4.14C76.8841 1.96266 81.0731 0.873998 85.6645 0.873998C91.0605 0.873998 95.7701 2.17566 99.7935 4.779C103.817 7.38233 106.751 11.0743 108.597 15.855H100.858C99.4858 12.873 97.4978 10.5773 94.8945 8.968C92.3385 7.35866 89.2618 6.554 85.6645 6.554C82.2091 6.554 79.1088 7.35866 76.3635 8.968C73.6181 10.5773 71.4645 12.873 69.9025 15.855C68.3405 18.7897 67.5595 22.245 67.5595 26.221C67.5595 30.1497 68.3405 33.605 69.9025 36.587C71.4645 39.5217 73.6181 41.7937 76.3635 43.403C79.1088 45.0123 82.2091 45.817 85.6645 45.817C89.2618 45.817 92.3385 45.036 94.8945 43.474C97.4978 41.8647 99.4858 39.569 100.858 36.587H108.597C106.751 41.3203 103.817 44.9887 99.7935 47.592C95.7701 50.148 91.0605 51.426 85.6645 51.426C81.0731 51.426 76.8841 50.361 73.0975 48.231C69.3581 46.0537 66.3998 43.048 64.2225 39.214C62.0451 35.38 60.9565 31.049 60.9565 26.221ZM345.262 51.497C340.67 51.497 336.481 50.432 332.695 48.302C328.908 46.1247 325.902 43.119 323.678 39.285C321.5 35.4037 320.412 31.049 320.412 26.221C320.412 21.393 321.5 17.062 323.678 13.228C325.902 9.34667 328.908 6.341 332.695 4.211C336.481 2.03366 340.67 0.944997 345.262 0.944997C349.9 0.944997 354.113 2.03366 357.9 4.211C361.686 6.341 364.668 9.323 366.846 13.157C369.023 16.991 370.112 21.3457 370.112 26.221C370.112 31.0963 369.023 35.451 366.846 39.285C364.668 43.119 361.686 46.1247 357.9 48.302C354.113 50.432 349.9 51.497 345.262 51.497ZM345.262 45.888C348.717 45.888 351.817 45.0833 354.563 43.474C357.355 41.8647 359.533 39.569 361.095 36.587C362.704 33.605 363.509 30.1497 363.509 26.221C363.509 22.245 362.704 18.7897 361.095 15.855C359.533 12.873 357.379 10.5773 354.634 8.968C351.888 7.35866 348.764 6.554 345.262 6.554C341.759 6.554 338.635 7.35866 335.89 8.968C333.144 10.5773 330.967 12.873 329.358 15.855C327.796 18.7897 327.015 22.245 327.015 26.221C327.015 30.1497 327.796 33.605 329.358 36.587C330.967 39.569 333.144 41.8647 335.89 43.474C338.682 45.0833 341.806 45.888 345.262 45.888Z" fill="#7DCACE"/>
<path d="M149.242 1.513V51H142.781V28.564H117.576V51H111.115V1.513H117.576V23.239H142.781V1.513H149.242ZM396.888 51L385.102 30.765H377.292V51H370.831V1.513H386.806C390.545 1.513 393.693 2.152 396.249 3.43C398.852 4.708 400.793 6.43567 402.071 8.613C403.349 10.7903 403.988 13.2753 403.988 16.068C403.988 19.476 402.994 22.4817 401.006 25.085C399.065 27.6883 396.131 29.416 392.202 30.268L404.627 51H396.888ZM377.292 25.582H386.806C390.309 25.582 392.936 24.73 394.687 23.026C396.438 21.2747 397.314 18.9553 397.314 16.068C397.314 13.1333 396.438 10.8613 394.687 9.252C392.983 7.64266 390.356 6.838 386.806 6.838H377.292V25.582Z" fill="#6DB52B"/>
<path d="M189.952 51H183.491L157.505 11.595V51H151.044V1.442H157.505L183.491 40.776V1.442H189.952V51Z" fill="#BE368B"/>
<path d="M198.907 1.513V51H192.446V1.513H198.907Z" fill="#E32114"/>
<path d="M199.695 26.221C199.695 21.393 200.784 17.062 202.961 13.228C205.138 9.34667 208.097 6.31733 211.836 4.14C215.623 1.96266 219.812 0.873998 224.403 0.873998C229.799 0.873998 234.509 2.17566 238.532 4.779C242.555 7.38233 245.49 11.0743 247.336 15.855H239.597C238.224 12.873 236.236 10.5773 233.633 8.968C231.077 7.35866 228 6.554 224.403 6.554C220.948 6.554 217.847 7.35866 215.102 8.968C212.357 10.5773 210.203 12.873 208.641 15.855C207.079 18.7897 206.298 22.245 206.298 26.221C206.298 30.1497 207.079 33.605 208.641 36.587C210.203 39.5217 212.357 41.7937 215.102 43.403C217.847 45.0123 220.948 45.817 224.403 45.817C228 45.817 231.077 45.036 233.633 43.474C236.236 41.8647 238.224 39.569 239.597 36.587H247.336C245.49 41.3203 242.555 44.9887 238.532 47.592C234.509 50.148 229.799 51.426 224.403 51.426C219.812 51.426 215.623 50.361 211.836 48.231C208.097 46.0537 205.138 43.048 202.961 39.214C200.784 35.38 199.695 31.049 199.695 26.221Z" fill="#5F72FF"/>
</g>
<defs>
<filter id="filter0_d" x="0.414001" y="0.873993" width="404.213" height="54.623" filterUnits="userSpaceOnUse" color-interpolation-filters="sRGB">
<feFlood flood-opacity="0" result="BackgroundImageFix"/>
<feColorMatrix in="SourceAlpha" type="matrix" values="0 0 0 0 0 0 0 0 0 0 0 0 0 0 0 0 0 0 127 0" result="hardAlpha"/>
<feOffset dy="4"/>
<feColorMatrix type="matrix" values="0 0 0 0 0 0 0 0 0 0 0 0 0 0 0 0 0 0 1 0"/>
<feBlend mode="normal" in2="BackgroundImageFix" result="effect1_dropShadow"/>
<feBlend mode="normal" in="SourceGraphic" in2="effect1_dropShadow" result="shape"/>
</filter>
</defs>
</svg>
